<svg version="1.1" id="Layer_1" xmlns:x="ns_extend;" xmlns:i="ns_ai;" xmlns:graph="ns_graphs;" xmlns="http://www.w3.org/2000/svg" xmlns:xlink="http://www.w3.org/1999/xlink" x="0px" y="0px" viewBox="0 0 59.4 46.9" style="enable-background:new 0 0 59.4 46.9;" xml:space="preserve">
 <style type="text/css">
  .st0{fill-rule:evenodd;clip-rule:evenodd;fill:#1BA0E2;}
	.st1{fill-rule:evenodd;clip-rule:evenodd;fill:#0D7FCC;}
 </style>
 <metadata>
  <sfw xmlns="ns_sfw;">
   <slices>
   </slices>
   <sliceSourceBounds bottomLeftOrigin="true" height="46.9" width="59.4" x="68" y="87.9">
   </sliceSourceBounds>
  </sfw>
 </metadata>
 <g id="Train_Booking">
  <g id="Train_Booking-Form_Login-Success" transform="translate(-174.000000, -10.000000)">
   <g id="Logo-_x2F_-Normal-Text-Copy-2" transform="translate(174.000000, 10.000000)">
    <g id="Icon-Blue-Copy" transform="translate(106.348506, 0.000000)">
     <path id="Path-7" class="st0" d="M-72.5,15.9C-61.2,8.7-47,7.3-47,7.3S-62,24.5-65.7,32.4c-1.1,3.5,1.2,6.3,1.2,6.3
					S-71.1,31.3-72.5,15.9z">
     </path>
     <path id="Path-7-Copy" class="st1" d="M-67.6,13.2c-1.7,0.8-3.3,1.7-4.9,2.7c0.7,7.8,2.8,13.5,4.6,17.3c1,1.8,1.9,3.2,2.6,4.3
					c-0.4-0.7-0.7-1.7-0.8-2.8C-67,31-67.9,24.5-67.6,13.2z">
     </path>
     <path id="Path-6" class="st0" d="M-82.6,22.6c0,0-0.7-2.6-1-3.4c-0.7-2-1.4-4.1-1.4-7.6c0-4.8,8.2-10,13.3-11.6
					c-1.4,17.6,0.6,23,2.4,28.8c4.3,14.4,14.2,16.5,15.1,17.5c-2.5-0.5-1.1,0.6-1.1,0.6s-4-2.8-12.1-5.1c-8.1-2.3-14.4-2.6-18.2-4.8
					c-3-2.2-3.1-4-4.5-5.3c-4.6-4-16.3-5.7-16.3-5.7l10,1.6c0,0,1.4,0,3-0.6c0.4,0,1.5-1.3,3.9-0.5c1,0.3,0.7,0.7,3.6,1.5
					C-82.2,29.1-82.6,22.6-82.6,22.6z">
     </path>
    </g>
   </g>
  </g>
 </g>
</svg>